<?xml version="1.0" standalone="no"?>
<!DOCTYPE svg PUBLIC "-//W3C//DTD SVG 1.1//EN" "http://www.w3.org/Graphics/SVG/1.1/DTD/svg11.dtd" >
<svg xmlns="http://www.w3.org/2000/svg">
<metadata></metadata>
<defs>
<font id="arsenalbold" horiz-adv-x="681" >
<font-face units-per-em="2048" ascent="1536" descent="-512" />
<missing-glyph horiz-adv-x="522" />
<glyph horiz-adv-x="0" />
<glyph unicode="&#xd;" />
<glyph unicode=" "  horiz-adv-x="522" />
<glyph unicode="&#x09;" horiz-adv-x="522" />
<glyph unicode="&#xa0;" horiz-adv-x="522" />
<glyph unicode="!" d="M186 131q1 70 50 123q47 43 114.5 43t112.5 -43q49 -53 49 -123q0 -72 -49 -121q-45 -43 -112.5 -43t-114.5 43q-49 49 -50 121zM193 1411v125h311v-125l-88 -940h-137z" />
<glyph unicode="&#x22;" horiz-adv-x="815" d="M63 1536l250 -8l-96 -537h-129zM455 1536l250 -8l-97 -537h-129z" />
<glyph unicode="#" horiz-adv-x="1060" d="M92 381v131h164l66 305h-230v131h256l60 277l110 -33l-51 -244h240l49 238l110 -33l-43 -205h144v-131h-170l-64 -305h234v-131h-262l-58 -279l-110 35l51 244h-242l-49 -240l-111 35l43 205h-137zM375 512h239l64 305h-240z" />
<glyph unicode="$" horiz-adv-x="854" d="M49 270l76 107q10 -14 28.5 -34.5t78 -55.5t120.5 -35q76 0 117 39t41 102q0 57 -43 96t-104.5 66t-123 5905B8B5BA0B" />
<glyph unicode="%" horiz-adv-x="1775" d="M74 954q0 186 95 299t261 113q164 0 261 -114t97 -298q0 -188 -94 -302.5t-264 -114.5q-174 0 -265 113.5t0E04258A96" />
<glyph unicode="&#x26;" horiz-adv-x="1312" d="M74 367q0 242 266 331q-178 94 -178 301q0 164 107.5 258.5t283.5 94.5q61 0 130 -16.5t108 -32.5l36 -15l0A86471A74" />
<glyph unicode="'" horiz-adv-x="423" d="M63 1536l250 -8l-96 -537h-129z" />
<glyph unicode="(" horiz-adv-x="735" d="M158 557.5q0 190.5 40 357t97 269t114.5 177.5t98.5 105l39 33l117 -72q-10 -10 -26.5 -29.5t-58.5 -94t-7044095DA59" />
<glyph unicode=")" horiz-adv-x="735" d="M72 -305q10 10 26.5 30.5t57.5 96.5t72.5 167t58 246.5t26.5 331.5t-24.5 330t-60 247t-71.5 160.5t-61 96.5l-24 26l108 72q16 -10 43 -31.5t94.5 -101.5t119.5 -177t95 -264t43 -357.5t-40.5 -357.5t-99 -269.5t-116 -177t-98.5 -107.5l-41 -31z" />
<glyph unicode="*" horiz-adv-x="839" d="M20 1028l78 264l273 -198l-76 370h252l-84 -368l278 196l76 -264l-325 -31l251 -252l-202 -163l-121 350l-123 -350l-201 163l250 248z" />
<glyph unicode="+" horiz-adv-x="933" d="M63 487v152h334v377h146v-377h327v-152h-327v-378h-146v378h-334z" />
<glyph unicode="," horiz-adv-x="542" d="M115 178q0 66 45 111q43 39 100 39t102 -39q20 -23 31 -45q25 -51 25 -119q0 -119 -65.5 -254t-162.5 -213l-69 76q68 61 110.5 141t49.5 156q-2 0 -10.5 -1t-12.5 -1q-55 0 -98 39q-45 43 -45 110z" />
<glyph unicode="-" d="M63 487v152h558v-152h-558z" />
<glyph unicode="." horiz-adv-x="608" d="M139 131q0 70 49 123q45 43 115 43q68 0 113 -43q49 -53 49 -123q0 -72 -49 -121q-45 -43 -113 -43q-70 0 -115 43q-49 49 -49 121z" />
<glyph unicode="../../default.htm" horiz-adv-x="935" d="M16 -512l752 2048h184l-751 -2048h-185z" />
<glyph unicode="0" horiz-adv-x="1185" d="M90 662q0 690 504 690q502 0 502 -690q0 -684 -502 -685q-504 0 -504 685zM397 662q0 -319 41 -431t156 -112t156 111.5t41 431.5q0 322 -41 435t-156 113t-156 -113.5t-41 -434.5z" />
<glyph unicode="1" horiz-adv-x="815" d="M86 1157l307 174h219v-1331h-268v1143l-203 -109z" />
<glyph unicode="2" horiz-adv-x="991" d="M70 0v211q68 27 152.5 89t171.5 155.5t146.5 223.5t59.5 263q0 150 -45 204t-149 54q-47 0 -113 -24.5t-109 -49.5l-41 -26l-28 143q18 12 51 30.5t122 48.5t167 30q219 0 332.5 -107.5t113.5 -283.5q0 -106 -47 -212t-128 -197t-163 -162t-176 -134h533v-256h-850z" />
<glyph unicode="3" horiz-adv-x="1007" d="M72 127l73 121q14 -14 39 -34.5t99.5 -55.5t144.5 -35q111 0 162 61.5t51 202.5q0 133 -35 189.5t-112 56.0CF0E86A4E" />
<glyph unicode="4" horiz-adv-x="1091" d="M61 446q90 164 185.5 429.5t140.5 488.5l260 -33q-80 -340 -407 -864h387l73 663h205v-663h131v-117l-131 -24v-326h-278v326h-551z" />
<glyph unicode="5" horiz-adv-x="1001" d="M45 125l82 115q10 -12 30.5 -32t87 -52.5t138.5 -32.5q119 0 183.5 69.5t64.5 233.5q0 283 -209 283q-104 0 -152 -64l-10 -20l-96 14l78 692h610l-14 -266h-486l-24 -244q59 18 118 19q217 0 346.5 -104.5t129.5 -303.5q0 -152 -80 -258t-192.5 -151.5t-243.5 -45.5 q-111 0 -201 37t-125 74z" />
<glyph unicode="6" horiz-adv-x="1085" d="M90 545q0 123 10 194q74 612 478 613q66 0 139.5 -20.5t113.5 -41.5l43 -18l-34 -137q-129 74 -236 73q-119 0 -177 -94t-67 -336q106 84 228 84q190 0 307 -110.5t117 -325.5q0 -211 -120 -330t-333 -119q-223 0 -346 138.5t-123 429.5zM383 455q0 -195 40 -268.5 t136 -73.5q88 0 124 72.5t36 244.5q0 162 -38 232.5t-126 70.5q-96 0 -166 -96q-6 -55 -6 -182z" />
<glyph unicode="7" horiz-adv-x="923" d="M74 1059v272h819v-215q-123 -217 -235.5 -535.5t-170.5 -580.5h-294q43 158 138 371t162.5 339t192.5 349h-612z" />
<glyph unicode="8" horiz-adv-x="1097" d="M74 360q0 221 266 314q-240 82 -240 315q0 174 123 268.5t326 94.5t325.5 -95.5t122.5 -269.5q0 -217 -2450C2D846A41" />
<glyph unicode="9" horiz-adv-x="1085" d="M74 883q0 211 126 340t337 129q457 0 456 -568q0 -86 -4 -143q-25 -334 -167 -499t-339 -165q-96 0 -169.5 23t-100.5 45l-27 23l60 133q88 -80 219 -80q242 0 258 426q-90 -90 -227 -90q-190 0 -306 105.5t-116 320.5zM365 893q0 -162 37.5 -234.5t125.5 -72.5 q137 0 170 141q4 86 4 147q0 190 -37.5 266.5t-127.5 76.5q-172 0 -172 -324z" />
<glyph unicode=":" horiz-adv-x="610" d="M139 131q0 70 49 123q45 43 115 43q68 0 113 -43q49 -53 49 -123q0 -72 -49 -121q-45 -43 -113 -43q-70 0 -115 43q-49 49 -49 121zM139 850q0 72 49 123q45 43 115 43q68 0 113 -43q49 -51 49 -123t-49 -121q-45 -43 -113 -43q-70 0 -115 43q-49 49 -49 121z" />
<glyph unicode=";" horiz-adv-x="608" d="M139 850q0 72 49 123q45 43 115 43q68 0 113 -43q49 -51 49 -123t-49 -121q-45 -43 -113 -43q-70 0 -115 43q-49 49 -49 121zM154 178q0 66 45 111q43 39 100 39t102 -39q20 -23 31 -45q25 -51 25 -119q0 -119 -65.5 -254t-162.5 -213l-69 76q68 61 110.5 141t48.5 156 q-2 0 -10 -1t-12 -1q-55 0 -98 39q-45 43 -45 110z" />
<glyph unicode="&#x3c;" horiz-adv-x="774" d="M96 645l490 463l80 -94l-330 -367l338 -368l-88 -95z" />
<glyph unicode="=" horiz-adv-x="1073" d="M63 289v151h949v-151h-949zM63 686v152h949v-152h-949z" />
<glyph unicode="&#x3e;" horiz-adv-x="774" d="M109 279l321 366l-321 369l79 94l490 -463l-490 -461z" />
<glyph unicode="?" horiz-adv-x="911" d="M117 1468q14 10 41.5 24.5t113.5 39t174 24.5q195 0 296.5 -107.5t101.5 -256.5q0 -96 -34 -171t-83 -117t-108.5 -85t-108.5 -77.5t-83 -90t-34 -127.5q0 -16 4 -53l-96 -8q-29 88 -29 155q0 63 27 111.5t64.5 83.5t76.5 74t65.5 106.5t26.5 159.5q0 139 -37.5 201.5 t-123.5 62.5q-51 0 -109.5 -20.5t-91.5 -40.5l-33 -19zM199 131q0 70 49 123q47 43 114.5 43t112.5 -43q49 -53 49 -123q0 -72 -49 -121q-45 -43 -112.5 -43t-114.5 43q-49 49 -49 121z" />
<glyph unicode="@" horiz-adv-x="1765" d="M94 377q0 432 222.5 683t639.5 251q356 0 539.5 -187.5t183.5 -531.5q0 -317 -109.5 -473t-295.5 -156q-160 0 -209 90q-70 -92 -207 -92q-158 0 -253 109.5t-95 322.5q0 195 107.5 320t269.5 125q106 0 186 -72l37 35h117v-555q0 -96 16.5 -133t56.5 -37q49 0 82 35.5 t57.5 154.5t24.5 320q0 315 -122.5 458.5t-385.5 143.5q-621 0 -620 -811q0 -748 590 -748q84 0 161.5 18.5t128 45t89 53.5t55.5 45l18 19l58 -113q-6 -8 -17.5 -22.5t-56.5 -50.5t-98.5 -62.5t-144.5 -49t-193 -22.5q-424 0 -628 229.5t-204 657.5zM743 393 q0 -172 40 -244.5t128 -72.5q86 0 125 92v494q-39 63 -123 63q-92 0 -131 -77t-39 -255z" />
<glyph unicode="A" horiz-adv-x="1245" d="M39 0l442 1331h314l413 -1331h-299l-114 373h-463l-121 -373h-172zM373 502h383l-183 626h-4z" />
<glyph unicode="B" horiz-adv-x="1165" d="M158 0v1331h405q231 0 351 -100.5t120 -245.5q0 -190 -198 -291q117 -37 186.5 -116.5t69.5 -194.5q0 -174 -132.5 -278.5t-386.5 -104.5h-415zM440 133h127q111 0 174.5 64.5t63.5 195.5q0 223 -182 223h-183v-483zM440 739h168q57 0 103.5 54.5t46.5 175.5 q0 119 -55.5 174t-147.5 55h-115v-459z" />
<glyph unicode="C" horiz-adv-x="1179" d="M74 655q0 319 160.5 508t445.5 189q94 0 196.5 -27t157.5 -51l56 -27l-29 -149q-195 100 -346 100q-172 0 0F44878A74" />
<glyph unicode="D" horiz-adv-x="1325" d="M158 0v1331h452q309 0 476 -171t167 -498q0 -324 -163.5 -493t-477.5 -169h-454zM440 145h174q176 0 251 116t75 401q0 287 -76 405.5t-254 118.5h-170v-1041z" />
<glyph unicode="E" horiz-adv-x="1073" d="M158 0v1331h798v-147h-516v-439h455v-143h-455v-455h545v-147h-827z" />
<glyph unicode="F" horiz-adv-x="999" d="M158 0v1331h809v-147h-527v-492h459v-143h-459v-549h-282z" />
<glyph unicode="G" horiz-adv-x="1280" d="M74 661.5q0 323.5 161.5 507t452.5 183.5q94 0 197.5 -27t158.5 -51l56 -27l-31 -149q-193 100 -344 100q-186 0 -263 -124t-77 -415q0 -528 309 -528q59 0 104.5 20.5t69 54.5t33.5 58.5t17 50.5v248h-207v139h446v-702h-123l-71 117q-106 -139 -318 -140 q-272 0 -421.5 180.5t-149.5 504z" />
<glyph unicode="H" horiz-adv-x="1341" d="M158 0v1331h282v-581h461v581h283v-1331h-283v606h-461v-606h-282z" />
<glyph unicode="I" horiz-adv-x="600" d="M158 0v1331h282v-1331h-282z" />
<glyph unicode="J" horiz-adv-x="786" d="M8 61l62 119q47 -57 141 -57q78 0 114.5 66.5t36.5 248.5v893h283v-893q0 -254 -91 -357.5t-282 -103.5q-92 0 -157.5 21.5t-85.5 42.5z" />
<glyph unicode="K" horiz-adv-x="1267" d="M158 0v1331h282v-616l121 88l391 528h197l-404 -520l498 -811h-358l-357 598l-88 -61v-537h-282z" />
<glyph unicode="L" horiz-adv-x="980" d="M158 0v1331h282v-1184h516v-147h-798z" />
<glyph unicode="M" horiz-adv-x="1753" d="M158 0l16 1331h342l373 -981h8l367 981h317l14 -1331h-276l-14 1008h-7l-370 -1008h-211l-371 1008h-6l-6 -1008h-176z" />
<glyph unicode="N" horiz-adv-x="1333" d="M158 0v1331h293l559 -903h4l-15 92v811h177v-1331h-222l-632 999h-5l17 -118v-881h-176z" />
<glyph unicode="O" horiz-adv-x="1357" d="M74 663.5q0 319.5 156.5 504t445.5 184.5q291 0 449.5 -185.5t158.5 -503t-158.5 -502t-449.5 -184.5q-289 0 -445.5 183.5t-156.5 503zM385 664q0 -285 67.5 -413t223.5 -128q158 0 226.5 128t68.5 413q0 283 -70 411.5t-225 128.5q-154 0 -222.5 -129t-68.5 -411z" />
<glyph unicode="P" horiz-adv-x="1091" d="M158 0v1331h407q227 0 353 -113.5t126 -336.5q0 -233 -143 -349t-330 -116h-131v-416h-282zM440 547h99q102 0 151 70.5t49 250.5q0 182 -49 256t-151 74h-99v-651z" />
<glyph unicode="Q" horiz-adv-x="1357" d="M74 664q0 319 156.5 503.5t445.5 184.5q293 0 450.5 -178.5t157.5 -495.5q0 -268 -114.5 -448.5t-325.5 -231.5q135 -274 276 -274q27 0 58 12l12 -119q-55 -20 -121 -20q-150 0 -287 112.5t-204 274.5q-244 31 -374 210t-130 470zM385 664q0 -281 67.5 -411t223 -130 t225.5 131t70 410q0 276 -71 408t-224 132q-152 0 -221.5 -131t-69.5 -409z" />
<glyph unicode="R" horiz-adv-x="1183" d="M158 0v1331h409q225 0 352.5 -109.5t127.5 -308.5q0 -129 -63.5 -224t-166.5 -148l307 -541h-325l-250 483h-109v-483h-282zM440 618h105q111 0 153.5 61.5t42.5 221.5t-45.5 228.5t-156.5 68.5h-99v-580z" />
<glyph unicode="S" horiz-adv-x="1007" d="M63 139l78 119q12 -14 35 -35.5t102.5 -57.5t170.5 -36q96 0 149 51t53 135q0 70 -55 123.5t-133 93t-156 0B75D8EACD" />
<glyph unicode="T" horiz-adv-x="1056" d="M29 1184v147h999v-147h-356v-1184h-285v1184h-358z" />
<glyph unicode="U" horiz-adv-x="1257" d="M139 483v848h285v-784q0 -221 60.5 -317.5t189.5 -96.5q137 0 202.5 100.5t65.5 313.5v784h174v-848q0 -506 -487 -506q-242 0 -366 133.5t-124 372.5z" />
<glyph unicode="V" horiz-adv-x="1179" d="M18 1331h299l316 -1124h6l342 1124h178l-428 -1331h-313z" />
<glyph unicode="W" horiz-adv-x="1787" d="M18 1331h301l246 -1007h4l273 1007h227l281 -1001h6l231 1001h180l-348 -1331h-241l-279 983h-4l-277 -983h-245z" />
<glyph unicode="X" horiz-adv-x="1189" d="M16 0l414 647l-395 684h354l246 -477h6l285 477h200l-389 -614l437 -717h-353l-284 508h-7l-301 -508h-213z" />
<glyph unicode="Y" horiz-adv-x="1071" d="M-14 1331h317l293 -604h4l287 604h196l-399 -786v-545h-285v514z" />
<glyph unicode="Z" horiz-adv-x="1161" d="M86 0v119l641 1065h-604v147h946v-123l-641 -1061h639v-147h-981z" />
<glyph unicode="[" horiz-adv-x="790" d="M174 -182v1638h600v-141h-362v-1358h362v-139h-600z" />
<glyph unicode="\" horiz-adv-x="935" d="M-14 1536h184l750 -2048h-183z" />
<glyph unicode="]" horiz-adv-x="790" d="M14 -43h363v1358h-363v139h602v-1636h-602v139z" />
<glyph unicode="^" horiz-adv-x="731" d="M61 1087l304 343l305 -343l-80 -90l-225 217l-224 -217z" />
<glyph unicode="_" horiz-adv-x="1390" d="M63 -180h1264v-152h-1264v152z" />
<glyph unicode="`" horiz-adv-x="495" d="M-74 1440l217 71l174 -301l-127 -34z" />
<glyph unicode="a" horiz-adv-x="1050" d="M55 246q0 96 54.5 166.5t147.5 109.5t178 57.5t183 26.5v60q0 139 -38.5 191t-130.5 52q-43 0 -103.5 -18.0DBD8B9A19" />
<glyph unicode="b" horiz-adv-x="1116" d="M123 0v1528l272 16v-588h8q6 10 21.5 26.5t79 44.5t145.5 28q182 0 295 -144.5t113 -378.5q0 -254 -114 -408.5t-314 -154.5q-82 0 -149.5 25.5t-94.5 50.5l-27 25h-4l-45 -70h-186zM395 201q4 -8 14.5 -20.5t52.5 -34t95 -21.5q113 0 160 91t47 310q0 207 -44 288 t-153 81q-53 0 -96 -26.5t-59 -53.5l-17 -27v-587z" />
<glyph unicode="c" horiz-adv-x="913" d="M59 506q0 250 131.5 395.5t362.5 145.5q63 0 138 -19.5t118 -40.5l43 -20l-27 -131q-143 73 -238 73h-3q-100AB061A2C" />
<glyph unicode="d" horiz-adv-x="1116" d="M59 489q0 250 114 402.5t302 152.5q80 0 139.5 -19t79.5 -38l21 -20h6v561l272 16v-1544h-227l-31 92h-2q-6 -12 -19.5 -31.5t-76 -51.5t-150.5 -32q-193 0 -310.5 139.5t-117.5 372.5zM352 498q0 -209 46.5 -285t150.5 -76q51 0 94 23.5t62 48.5l16 22v590 q-57 68 -162 68q-111 0 -159 -88t-48 -303z" />
<glyph unicode="e" horiz-adv-x="970" d="M59 494q0 266 123 408t332 142q190 0 295.5 -119.5t105.5 -342.5q0 -37 -4 -69t-8 -46l-4 -14h-551q2 -184071D550AA2" />
<glyph unicode="f" horiz-adv-x="708" d="M72 866v123l100 29v151q0 387 324 387q51 0 108.5 -17t87.5 -36l33 -16l-35 -117q-88 49 -145 49q-55 0 -78 -53t-23 -227v-115h256v-158h-256v-866h-272v866h-100z" />
<glyph unicode="g" horiz-adv-x="944" d="M20 -195q0 172 130 252q-23 49 -23 111q0 123 90 201q-158 100 -158 307q0 184 119 276t303 92q82 0 156 -22l276 -2v-121l-98 -6q57 -86 57 -217q0 -182 -107.5 -278.5t-289.5 -96.5q-70 0 -141 16q-39 -31 -39 -75q0 -84 209 -84q442 0 442 -324q0 -180 -117.5 -275.5 t-349 -95.5t-345.5 92.5t-114 249.5zM211 -188q0 -209 268 -209q240 0 240 168q0 155 -258 155q-121 0 -199 33q-51 -55 -51 -147zM322 676q0 -250 147 -250q70 0 104.5 59.5t34.5 194.5t-34.5 184t-106.5 49t-108.5 -50t-36.5 -187z" />
<glyph unicode="h" horiz-adv-x="1099" d="M123 0v1528l272 16v-590h8q10 10 30 25.5t88.5 40t148.5 24.5q160 0 237.5 -85t77.5 -265v-694h-270v672q0 119 -31 160.5t-109 41.5q-51 0 -96 -18t-65 -37l-19 -18v-801h-272z" />
<glyph unicode="i" horiz-adv-x="518" d="M104 1335q1 68 48 115q43 41 108 41q63 0 105 -39q45 -47 45 -117q0 -72 -45 -118q-45 -39 -105 -39q-61 0 -108 41q-47 47 -48 116zM123 0v1024h272v-1024h-272z" />
<glyph unicode="j" horiz-adv-x="573" d="M-102 -473l45 123q51 -39 108 -39q66 0 95.5 73t29.5 257v1083h273v-1083q0 -248 -97.5 -362t-263.5 -114q-59 0 -106.5 15.5t-65.5 32.5zM160 1335q0 68 47 115q43 41 108 41q63 0 105 -39q45 -47 45 -117q0 -72 -45 -118q-45 -39 -105 -39q-61 0 -108 41 q-47 47 -47 116z" />
<glyph unicode="k" horiz-adv-x="1005" d="M121 0v1528l272 16v-954l142 96l217 338h168l-267 -381l332 -643h-311l-230 479l-51 -33v-446h-272z" />
<glyph unicode="l" horiz-adv-x="520" d="M123 0v1528l272 16v-1544h-272z" />
<glyph unicode="m" horiz-adv-x="1556" d="M123 0v1024h219l35 -92h6q10 12 31.5 30.5t92.5 50t146 31.5q166 0 226 -108q134 108 287 108h3q145 0 209 -76.5t64 -252.5v-715h-273v694q0 111 -25.5 147t-82.5 36q-88 0 -146 -78q4 -49 5 -80v-719h-273v694q0 109 -25.5 146t-80.5 37q-37 0 -72 -17.5t-51.5 -32 t-22.5 -24.5v-803h-272z" />
<glyph unicode="n" horiz-adv-x="1101" d="M123 0v1024h219l35 -84h8q8 12 27.5 29.5t93.5 46t168 28.5q315 0 315 -350v-694h-272v639q0 137 -30 186t-107 49q-53 0 -99.5 -18t-66.5 -37l-19 -18v-801h-272z" />
<glyph unicode="o" horiz-adv-x="1075" d="M59 512q0 256 124 395.5t354 139.5q231 0 355 -139.5t124 -395.5q0 -254 -128 -394.5t-351 -140.5q-229 0 -353.5 139.5t-124.5 395.5zM352 514q0 -223 41 -312t143.5 -89t143.5 89t41 310t-41 309t-143.5 88t-143.5 -88t-41 -307z" />
<glyph unicode="p" horiz-adv-x="1116" d="M123 -520v1544h219l37 -92h6q10 12 29.5 31.5t91.5 51.5t158 32q182 0 286.5 -139.5t104.5 -375.5q0 -252 -108.5 -403.5t-297.5 -151.5q-80 0 -142.5 19.5t-84.5 40.5l-21 18h-6v-567zM395 201q47 -68 152 -68q115 0 165 87t50 306q0 207 -47.5 284t-147.5 77 q-49 0 -91 -21.5t-59.5 -39t-21.5 -27.5v-598z" />
<glyph unicode="q" horiz-adv-x="1116" d="M61 489q0 250 119 404t309 154q76 0 140.5 -21.5t91.5 -42.5l24 -22h3l61 63h182v-1536l-272 -8v594h-8q-2 -4 -7.5 -10.5t-25 -22.5t-45 -29.5t-70.5 -24t-96 -10.5q-182 0 -294 139.5t-112 372.5zM352 498q0 -215 50.5 -288t156.5 -73q51 0 90 21.5t51.5 37t18.5 27.5 v602q-49 66 -152 66q-109 0 -162 -85t-53 -308z" />
<glyph unicode="r" horiz-adv-x="727" d="M123 0v1024h192l45 -172h9q2 8 4 21.5t16 46t32.5 58.5t56.5 47.5t85 21.5q29 0 70 -7.5t67 -15.5l25 -6l-25 -191q-104 29 -170 29q-47 0 -80.5 -30.5t-43.5 -61.5l-11 -31v-733h-272z" />
<glyph unicode="s" horiz-adv-x="854" d="M49 131l76 107q10 -14 28.5 -35t78 -55.5t120.5 -34.5q76 0 117 38.5t41 102.5q0 57 -43 96t-104.5 65.5t-123 59.5t-104.5 97.5t-43 156.5q0 152 104.5 235t258.5 83q66 0 139.5 -17.5t114.5 -36.5l41 -18l-37 -137q-131 75 -229 75h-3q-63 0 -98 -30.5t-35 -81.5 q0 -57 46 -98t111.5 -71t131 -65t112 -99.5t46.5 -156.5q0 -150 -99.5 -242t-285.5 -92q-119 0 -209 39t-121 78z" />
<glyph unicode="t" horiz-adv-x="722" d="M61 866v123l101 29l131 346h139v-340h225v-158h-225v-506q0 -141 20.5 -188t75.5 -47q29 0 55.5 5t39.5 9l12 4l16 -116q-51 -49 -207 -50q-145 0 -214.5 72t-69.5 242v575h-99z" />
<glyph unicode="u" horiz-adv-x="1101" d="M115 328v696h272v-639q0 -135 33 -186.5t106 -51.5q49 0 93.5 19.5t64.5 38.5l21 20v799h272v-1024h-219l-39 90h-4q-4 -4 -10.5 -12t-30 -27.5t-53 -34t-81 -27t-110.5 -12.5q-315 0 -315 351z" />
<glyph unicode="v" horiz-adv-x="966" d="M10 1024h330l201 -729h8l229 729h178l-362 -1024h-225z" />
<glyph unicode="w" horiz-adv-x="1433" d="M12 1024h310l149 -682h6l195 682h186l215 -682h6l166 682h176l-301 -1024h-217l-184 668v2h-6l-191 -670h-217z" />
<glyph unicode="x" horiz-adv-x="968" d="M18 0l316 496l-299 528h325l170 -362l193 362h186l-284 -465l325 -559h-325l-193 383l-223 -383h-191z" />
<glyph unicode="y" horiz-adv-x="985" d="M14 1024h330l250 -729l211 729h170l-354 -1047q-96 -264 -186.5 -388t-229.5 -124q-47 0 -87 7.5t-57 15.5l-16 8l23 160q53 -23 106 -23q92 0 149.5 73t127.5 253z" />
<glyph unicode="z" horiz-adv-x="888" d="M53 0v123l469 762h-430l-6 139h748v-123l-465 -762h446l4 -139h-766z" />
<glyph unicode="{" horiz-adv-x="831" d="M195 522v150q57 0 118.5 34.5t61.5 92.5q0 51 -30 197.5t-30 220.5q0 160 98.5 237.5t352.5 77.5v-133q-210771CF1A90" />
<glyph unicode="|" horiz-adv-x="700" d="M272 -512v2048h158v-2048h-158z" />
<glyph unicode="}" horiz-adv-x="831" d="M115 -203q115 0 166 44t51 132q0 61 -30 220t-30 223q0 123 142 182q-141 55 -142 180q0 66 30 223.5t30 221.5q0 88 -51.5 132t-165.5 44v133q254 0 353 -78t99 -237q0 -74 -30.5 -220.5t-30.5 -197.5q0 -57 62.5 -92t119.5 -35v-150q-57 0 -119.5 -33.5t-62.5 -91.5 q0 -53 30.5 -198.5t30.5 -218.5q0 -160 -99 -239t-353 -79v135z" />
<glyph unicode="~" horiz-adv-x="1224" d="M51 649q2 12 6 31.5t28 70t55.5 88.5t95 69.5t141.5 31.5q94 0 182 -38t143.5 -82t125 -82t133.5 -38q49 0 82.5 25t41.5 49l9 23l84 -54q-2 -12 -6.5 -31.5t-27 -70.5t-52 -90t-88 -70.5t-132.5 -31.5q-86 0 -167.5 37.5t-136 82.5t-127 83t-142.5 38q-35 0 -63.5 -10 t-46 -25.5t-30 -31t-16.5 -25.5l-4 -10z" />
<glyph unicode="&#xad;" d="M63 487v152h558v-152h-558z" />
<glyph unicode="&#x400;" horiz-adv-x="1073" d="M158 0v1331h798v-147h-516v-439h455v-143h-455v-455h545v-147h-827zM307 1716l217 72l174 -301l-127 -35z" />
<glyph unicode="&#x401;" horiz-adv-x="1073" d="M158 0v1331h798v-147h-516v-439h455v-143h-455v-455h545v-147h-827zM233 1612q0 63 41 106q41 35 94.5 35t94.5 -35q41 -47 41 -106q0 -61 -41 -107q-41 -37 -94.5 -37t-94.5 37q-41 41 -41 107zM614 1612q0 63 41 106q39 35 95 35q53 0 94 -35q41 -47 41 -106 q0 -61 -41 -107q-39 -37 -94 -37q-57 0 -95 37q-41 41 -41 107z" />
<glyph unicode="&#x402;" horiz-adv-x="1366" d="M29 1186v145h915v-145h-315v-457h4q10 12 31.5 29.5t101.5 47.5t174 30q182 0 262 -92.5t80 -268.5v-51q0 -250 -86 -348.5t-260 -98.5q-57 0 -102.5 14.5t-61.5 28.5l-16 15l39 102q37 -33 86 -33t80.5 45.5t35.5 180.5v90q0 154 -34.5 201t-131.5 47q-123 0 -202 -80 v-588h-285v1186h-315z" />
<glyph unicode="&#x403;" horiz-adv-x="897" d="M158 0v1331h741v-147h-459v-1184h-282zM408 1460l143 312l221 -64l-248 -266z" />
<glyph unicode="&#x404;" horiz-adv-x="1200" d="M74 643q0 317 158.5 513t435.5 196q94 0 195.5 -27t154.5 -51l53 -27l-29 -149q-188 100 -340 100q-154 0 0D676A9A3F" />
<glyph unicode="&#x405;" horiz-adv-x="1007" d="M63 139l78 119q12 -14 35 -35.5t102.5 -57.5t170.5 -36q96 0 149 51t53 135q0 70 -55 123.5t-133 93t-156 0B75D8EACD" />
<glyph unicode="&#x406;" horiz-adv-x="600" d="M158 0v1331h282v-1331h-282z" />
<glyph unicode="&#x407;" horiz-adv-x="600" d="M-27 1612q0 63 41 106q41 35 94.5 35t94.5 -35q41 -47 41 -106q0 -61 -41 -107q-39 -37 -94.5 -37t-94.5 37q-41 41 -41 107zM158 0v1331h282v-1331h-282zM354 1612q0 63 41 106q39 35 94 35q53 0 95 -35q41 -47 41 -106q0 -61 -41 -107q-39 -37 -95 -37q-57 0 -94 37 q-41 41 -41 107z" />
<glyph unicode="&#x408;" horiz-adv-x="819" d="M8 61l62 119q47 -57 141 -57q78 0 114.5 66.5t36.5 248.5v893h283v-893q0 -254 -91 -357.5t-282 -103.5q-92 0 -157.5 21.5t-85.5 42.5z" />
<glyph unicode="&#x409;" horiz-adv-x="1820" d="M49 -4l10 180q31 -10 62 -10q143 0 211.5 273.5t68.5 891.5h727v-510h97q252 0 387 -98t135 -295q0 -205 -130 -316.5t-384 -111.5h-387v1184h-283q-2 -604 -106.5 -904t-296.5 -300q-35 0 -62.5 4t-38.5 8zM1128 133h99q121 0 174 66.5t53 220.5q0 152 -55 212t-174 60 h-97v-559z" />
<glyph unicode="&#x40a;" horiz-adv-x="1873" d="M158 0v1331h282v-581h459v581h285v-510h94q252 0 387 -98t135 -295q0 -205 -130 -316.5t-384 -111.5h-387v606h-459v-606h-282zM1184 133h96q121 0 174 66.5t53 220.5q0 152 -55 212t-174 60h-94v-559z" />
<glyph unicode="&#x40b;" horiz-adv-x="1423" d="M29 1186v145h915v-145h-315v-457h4q10 12 31.5 29.5t101.5 47.5t174 30q182 0 262 -92.5t80 -268.5v-475h-285v420q0 154 -34.5 201t-131.5 47q-123 0 -202 -80v-588h-285v1186h-315z" />
<glyph unicode="&#x40c;" horiz-adv-x="1282" d="M158 0v1331h282v-616l121 88l391 528h197l-404 -520l498 -811h-358l-357 598l-88 -61v-537h-282zM541 1460l143 312l221 -64l-248 -266z" />
<glyph unicode="&#x40d;" horiz-adv-x="1384" d="M158 0v1331h282v-882l-14 -134h4l516 971l19 45h262v-1331h-283v860l12 148h-2l-514 -963l-16 -45h-266zM418 1716l217 72l174 -301l-127 -35z" />
<glyph unicode="&#x40e;" horiz-adv-x="1220" d="M47 1331h332l360 -741h6l242 741h189l-355 -921q-90 -229 -200.5 -331t-258.5 -102q-59 0 -110 13.5t-72 20B1F67BA93" />
<glyph unicode="&#x40f;" horiz-adv-x="1310" d="M158 0v1331h282v-1184h430v1184h283v-1331h-373l-41 -418h-157l-50 418h-374z" />
<glyph unicode="&#x410;" horiz-adv-x="1245" d="M39 0l442 1331h314l413 -1331h-299l-114 373h-463l-121 -373h-172zM373 502h383l-183 626h-4z" />
<glyph unicode="&#x411;" horiz-adv-x="1132" d="M158 0v1331h747v-147h-463v-363h86q254 0 392.5 -98t138.5 -295q0 -203 -133 -315.5t-389 -112.5h-379zM442 133h90q123 0 178.5 63.5t55.5 223.5q0 156 -56.5 214t-179.5 58h-88v-559z" />
<glyph unicode="&#x412;" horiz-adv-x="1165" d="M158 0v1331h405q231 0 351 -100.5t120 -245.5q0 -190 -198 -291q117 -37 186.5 -116.5t69.5 -194.5q0 -174 -132.5 -278.5t-386.5 -104.5h-415zM440 133h127q111 0 174.5 64.5t63.5 195.5q0 223 -182 223h-183v-483zM440 739h168q57 0 103.5 54.5t46.5 175.5 q0 119 -55.5 174t-147.5 55h-115v-459z" />
<glyph unicode="&#x413;" horiz-adv-x="897" d="M158 0v1331h741v-147h-459v-1184h-282z" />
<glyph unicode="&#x414;" horiz-adv-x="1323" d="M47 147h137q86 180 122 441.5t36 742.5h768v-1184h166l-49 -505h-160l-45 358h-729l-82 -358h-141zM352 147h475v1037h-319q-4 -395 -41 -630t-115 -407z" />
<glyph unicode="&#x415;" horiz-adv-x="1073" d="M158 0v1331h798v-147h-516v-439h455v-143h-455v-455h545v-147h-827z" />
<glyph unicode="&#x416;" horiz-adv-x="1832" d="M43 0l383 778l-324 553h203l273 -504h182v504h282v-504h160l320 504h202l-360 -508l426 -823h-330l-315 680h-103v-680h-282v678h-117l-268 -678h-332z" />
<glyph unicode="&#x417;" horiz-adv-x="1046" d="M25 190l86 107q4 -6 12 -17.5t37.5 -41t63.5 -51t90.5 -40t119.5 -18.5q223 0 223 250q0 131 -44 182t-13405C09B0A54" />
<glyph unicode="&#x418;" horiz-adv-x="1384" d="M158 0v1331h282v-882l-14 -134h4l516 971l19 45h262v-1331h-283v860l12 148h-2l-514 -963l-16 -45h-266z" />
<glyph unicode="&#x419;" horiz-adv-x="1384" d="M158 0v1331h282v-882l-14 -134h4l516 971l19 45h262v-1331h-283v860l12 148h-2l-514 -963l-16 -45h-266zM300CF5FAA8D" />
<glyph unicode="&#x41a;" horiz-adv-x="1282" d="M158 0v1331h282v-616l121 88l391 528h197l-404 -520l498 -811h-358l-357 598l-88 -61v-537h-282z" />
<glyph unicode="&#x41b;" horiz-adv-x="1286" d="M49 -4l10 180q31 -10 62 -10q143 0 211.5 273.5t68.5 891.5h727v-1331h-282v1184h-283q-2 -604 -106.5 -904t-296.5 -300q-35 0 -62.5 4t-38.5 8z" />
<glyph unicode="&#x41c;" horiz-adv-x="1753" d="M158 0l16 1331h342l373 -981h8l367 981h317l14 -1331h-276l-14 1008h-7l-370 -1008h-211l-371 1008h-6l-6 -1008h-176z" />
<glyph unicode="&#x41d;" horiz-adv-x="1341" d="M158 0v1331h282v-581h461v581h283v-1331h-283v606h-461v-606h-282z" />
<glyph unicode="&#x41e;" horiz-adv-x="1357" d="M74 663.5q0 319.5 156.5 504t445.5 184.5q291 0 449.5 -185.5t158.5 -503t-158.5 -502t-449.5 -184.5q-289 0 -445.5 183.5t-156.5 503zM385 664q0 -285 67.5 -413t223.5 -128q158 0 226.5 128t68.5 413q0 283 -70 411.5t-225 128.5q-154 0 -222.5 -129t-68.5 -411z" />
<glyph unicode="&#x41f;" horiz-adv-x="1310" d="M158 0v1331h995v-1331h-283v1184h-430v-1184h-282z" />
<glyph unicode="&#x420;" horiz-adv-x="1091" d="M158 0v1331h407q227 0 353 -113.5t126 -336.5q0 -233 -143 -349t-330 -116h-131v-416h-282zM440 547h99q102 0 151 70.5t49 250.5q0 182 -49 256t-151 74h-99v-651z" />
<glyph unicode="&#x421;" horiz-adv-x="1179" d="M74 655q0 319 160.5 508t445.5 189q94 0 196.5 -27t157.5 -51l56 -27l-29 -149q-195 100 -346 100q-172 0 0F44878A74" />
<glyph unicode="&#x422;" horiz-adv-x="1056" d="M29 1184v147h999v-147h-356v-1184h-285v1184h-358z" />
<glyph unicode="&#x423;" horiz-adv-x="1220" d="M47 1331h332l360 -741h6l242 741h189l-355 -921q-90 -229 -200.5 -331t-258.5 -102q-59 0 -110 13.5t-72 25.5l-20 13l37 172q66 -43 165 -43q78 0 131.5 28.5t102.5 110.5z" />
<glyph unicode="&#x424;" horiz-adv-x="1572" d="M51 674q0 250 160 387t434 143v127h283v-127q272 -6 434 -143t162 -385q0 -250 -163 -391.5t-433 -147.5v-137h-283v137q-272 6 -433 146.5t-161 390.5zM350 673.5q0 -198.5 68.5 -300t226.5 -109.5v815q-158 -8 -226.5 -107.5t-68.5 -298zM928 264q156 8 225.5 110.5 t69.5 301.5q0 197 -70 296t-225 107v-815z" />
<glyph unicode="&#x425;" horiz-adv-x="1189" d="M16 0l414 647l-395 684h354l246 -477h6l285 477h200l-389 -614l437 -717h-353l-284 508h-7l-301 -508h-213z" />
<glyph unicode="&#x426;" horiz-adv-x="1366" d="M158 0v1331h282v-1184h430v1184h283v-1184h166l-57 -505h-154l-47 358h-903z" />
<glyph unicode="&#x427;" horiz-adv-x="1200" d="M104 858v473h285v-438q0 -156 38 -212t130 -56q109 0 201 51v655h284v-1331h-284v545h-2q-10 -10 -32 -23.5t-99.5 -37t-171.5 -23.5q-182 0 -265.5 107.5t-83.5 289.5z" />
<glyph unicode="&#x428;" horiz-adv-x="1781" d="M158 0v1331h282v-1184h310v1184h282v-1184h307v1184h285v-1331h-1466z" />
<glyph unicode="&#x429;" horiz-adv-x="1830" d="M158 0v1331h282v-1184h310v1184h282v-1184h307v1184h285v-1184h156l-51 -505h-156l-45 358h-1370z" />
<glyph unicode="&#x42a;" horiz-adv-x="1318" d="M29 1184v147h598v-510h96q252 0 387 -98t135 -295q0 -205 -130 -316.5t-384 -111.5h-387v1184h-315zM627 133h98q121 0 174 66.5t53 220.5q0 152 -55 212t-174 60h-96v-559z" />
<glyph unicode="&#x42b;" horiz-adv-x="1648" d="M158 0v1331h282v-510h97q252 0 387 -98t135 -295q0 -205 -130 -316.5t-384 -111.5h-387zM440 133h99q121 0 174 66.5t53 220.5q0 152 -55 212t-174 60h-97v-559zM1208 0v1331h283v-1331h-283z" />
<glyph unicode="&#x42c;" horiz-adv-x="1132" d="M158 0v1331h282v-510h97q252 0 387 -98t135 -295q0 -205 -130 -316.5t-384 -111.5h-387zM440 133h99q121 0 174 66.5t53 220.5q0 152 -55 212t-174 60h-97v-559z" />
<glyph unicode="&#x42d;" horiz-adv-x="1155" d="M23 166l81 123q4 -6 13.5 -16.5t39 -38t63.5 -48t89.5 -37t114.5 -16.5q158 0 241 102.5t95 358.5h-555v140AC9C6AA39" />
<glyph unicode="&#x42e;" horiz-adv-x="1890" d="M158 0v1331h282v-594h170q16 287 171 451t427 164q289 0 449 -185.5t160 -503t-160 -502t-449 -184.5q-272 0 -426.5 164t-171.5 453h-170v-594h-282zM909 664q0 -279 72 -413t227.5 -134t225 133t69.5 414q0 279 -70.5 413.5t-224.5 134.5q-299 0 -299 -548z" />
<glyph unicode="&#x42f;" horiz-adv-x="1183" d="M74 0l276 549q-111 43 -179.5 135t-68.5 229q0 203 123 310.5t318 107.5h483v-1331h-285v514h-151l-225 -514h-291zM387 920q0 -264 168 -265h186v541h-188q-78 0 -122 -69.5t-44 -206.5z" />
<glyph unicode="&#x430;" horiz-adv-x="1050" d="M55 246q0 96 54.5 166.5t147.5 109.5t178 57.5t183 26.5v60q0 139 -38.5 191t-130.5 52q-43 0 -103.5 -18.0E104AFA82" />
<glyph unicode="&#x431;" horiz-adv-x="1077" d="M63 563q0 102 3.5 179t15.5 175.5t34.5 171t63.5 150.5t97.5 129t141.5 90t191 53l287 37l10 -268l-223 -16q-256 -18 -367.5 -144.5t-109.5 -365.5h16q8 37 30.5 81t63.5 95t111 84t154 33q205 0 319.5 -137.5t114.5 -391.5t-128 -397.5t-349 -143.5q-240 0 -358 156 t-118 430zM356 551q0 -240 41 -339t141.5 -99t142.5 92t42 313q0 219 -41 306t-143 87q-182 0 -183 -360z" />
<glyph unicode="&#x432;" horiz-adv-x="1021" d="M123 0v1024h391q217 0 315.5 -75t98.5 -199q0 -154 -180 -226q90 -25 152.5 -81t62.5 -144q0 -143 -102.5 -221t-342.5 -78h-395zM395 123h117q172 0 172 188q0 160 -158 160h-131v-348zM395 567h150q4 0 11 2t26.5 12.5t34 27t26.5 49t12 77.5q0 166 -145 166h-115v-334 z" />
<glyph unicode="&#x433;" horiz-adv-x="761" d="M123 0v1024h616v-150h-344v-874h-272z" />
<glyph unicode="&#x434;" horiz-adv-x="1087" d="M14 145h136q63 166 83.5 365t20.5 514h666v-879h145l-31 -448h-129l-47 303h-631l-61 -303h-131zM322 145h325v734h-241q-4 -487 -84 -734z" />
<glyph unicode="&#x435;" horiz-adv-x="970" d="M59 494q0 266 123 408t332 142q190 0 295.5 -119.5t105.5 -342.5q0 -37 -4 -69t-8 -46l-4 -14h-551q2 -184071D550AA2" />
<glyph unicode="&#x436;" horiz-adv-x="1472" d="M25 0l294 580l-247 444h186l197 -391l145 -4v395h272v-393l144 4l217 389h178l-258 -451l295 -573h-295l-217 492l-64 -3v-489h-272v492l-61 4l-222 -496h-292z" />
<glyph unicode="&#x437;" horiz-adv-x="894" d="M16 139l76 99q4 -4 10.5 -13.5t29 -31t49 -38t72.5 -29.5t97 -13q94 0 147.5 50t53.5 146q0 154 -158 154l0CE6CD0AB1" />
<glyph unicode="&#x438;" horiz-adv-x="1130" d="M123 0v1024h272v-674l375 674h238v-1024h-273v715l-399 -715h-213z" />
<glyph unicode="&#x439;" horiz-adv-x="1130" d="M123 0v1024h272v-674l375 674h238v-1024h-273v715l-399 -715h-213zM264 1380v25l213 18v-24q-8 -18 -8 -410491BF3ADF" />
<glyph unicode="&#x43a;" horiz-adv-x="1009" d="M123 0v1024h272v-428l129 68l228 360h157l-241 -383l319 -641h-309l-217 485l-66 -28v-457h-272z" />
<glyph unicode="&#x43b;" horiz-adv-x="1024" d="M18 -16l11 163q8 -2 24 -2q127 0 181.5 226.5t54.5 652.5h610v-1024h-272v874h-185q-10 -410 -100 -653.5t-270 -243.5q-27 0 -54 7z" />
<glyph unicode="&#x43c;" horiz-adv-x="1390" d="M113 0l55 1024h328l198 -733h2l232 733h321l27 -1024h-254l-18 672v110h-7l-260 -782h-186l-248 782h-4l-2 -57l-33 -725h-151z" />
<glyph unicode="&#x43d;" horiz-adv-x="1107" d="M123 0v1024h272v-428h318v428h272v-1024h-272v457h-318v-457h-272z" />
<glyph unicode="&#x43e;" horiz-adv-x="1075" d="M59 512q0 256 124 395.5t354 139.5q231 0 355 -139.5t124 -395.5q0 -254 -128 -394.5t-351 -140.5q-229 0 -353.5 139.5t-124.5 395.5zM352 514q0 -223 41 -312t143.5 -89t143.5 89t41 310t-41 309t-143.5 88t-143.5 -88t-41 -307z" />
<glyph unicode="&#x43f;" horiz-adv-x="1095" d="M123 0v1024h848v-1024h-273v874h-303v-874h-272z" />
<glyph unicode="&#x440;" horiz-adv-x="1116" d="M123 -520v1544h219l37 -92h6q10 12 29.5 31.5t91.5 51.5t158 32q182 0 286.5 -139.5t104.5 -375.5q0 -252 -108.5 -403.5t-297.5 -151.5q-80 0 -142.5 19.5t-84.5 40.5l-21 18h-6v-567zM395 201q47 -68 152 -68q115 0 165 87t50 306q0 207 -47.5 284t-147.5 77 q-49 0 -91 -21.5t-59.5 -39t-21.5 -27.5v-598z" />
<glyph unicode="&#x441;" horiz-adv-x="913" d="M59 506q0 250 131.5 395.5t362.5 145.5q63 0 138 -19.5t118 -40.5l43 -20l-27 -131q-145 74 -241 73q-119 05D8CEFAA2" />
<glyph unicode="&#x442;" horiz-adv-x="905" d="M20 1024h863v-150h-295v-874h-271v874h-294z" />
<glyph unicode="&#x443;" horiz-adv-x="985" d="M14 1024h330l250 -729l211 729h170l-354 -1047q-96 -264 -186.5 -388t-229.5 -124q-47 0 -87 7.5t-57 15.5l-16 8l23 160q53 -23 106 -23q92 0 149.5 73t127.5 253z" />
<glyph unicode="&#x444;" horiz-adv-x="1425" d="M59 510q0 256 136.5 396.5t365.5 140.5l14 -3v484l273 16v-497h14q229 0 366.5 -140.5t137.5 -394.5t-137 -394.5t-367 -140.5l-14 3v-492l-273 -8v497h-14q-229 0 -365.5 139.5t-136.5 393.5zM338 510q0 -223 58.5 -309t178.5 -88v796q-121 -2 -179 -88t-58 -311z M848 115q123 2 181 87t58 310t-59 311t-180 88v-796z" />
<glyph unicode="&#x445;" horiz-adv-x="968" d="M18 0l316 496l-299 528h325l170 -362l193 362h186l-284 -465l325 -559h-325l-193 383l-223 -383h-191z" />
<glyph unicode="&#x446;" horiz-adv-x="1140" d="M123 0v1024h272v-874h303v874h273v-874h135l-31 -453h-143l-35 303h-774z" />
<glyph unicode="&#x447;" horiz-adv-x="1013" d="M76 659v365h272v-373q0 -84 27.5 -120.5t89.5 -36.5q39 0 77 9t56 17l18 10v494h273v-1024h-273v422h-2q-74 -53 -249 -53q-289 0 -289 290z" />
<glyph unicode="&#x448;" horiz-adv-x="1546" d="M123 0v1024h272v-874h242v874h272v-874h240v874h272v-1024h-1298z" />
<glyph unicode="&#x449;" horiz-adv-x="1589" d="M123 0v1024h272v-874h242v874h272v-874h240v874h272v-874h135l-28 -453h-144l-36 303h-1225z" />
<glyph unicode="&#x44a;" horiz-adv-x="1179" d="M37 874v150h538v-352h97q453 0 452 -324q0 -178 -111.5 -263t-340.5 -85h-369v874h-266zM575 123h84q86 0 130.5 48t44.5 177q0 117 -47.5 160t-127.5 43h-84v-428z" />
<glyph unicode="&#x44b;" horiz-adv-x="1472" d="M123 0v1024h272v-352h97q453 0 452 -324q0 -178 -111.5 -263t-340.5 -85h-369zM395 123h84q86 0 130 48t44 177q0 117 -47 160t-127 43h-84v-428zM1077 0v1024h273v-1024h-273z" />
<glyph unicode="&#x44c;" horiz-adv-x="1001" d="M123 0v1024h272v-352h97q453 0 452 -324q0 -178 -111.5 -263t-340.5 -85h-369zM395 123h84q86 0 130 48t44 177q0 117 -47 160t-127 43h-84v-428z" />
<glyph unicode="&#x44d;" horiz-adv-x="923" d="M20 135l74 96q10 -12 28.5 -31.5t86 -52t143.5 -32.5q125 0 180.5 71.5t63.5 257.5l-393 -8v156h393q-8 180ACEF09A7D" />
<glyph unicode="&#x44e;" horiz-adv-x="1468" d="M123 0v1024h272v-428h123q18 219 127 335t299 116q229 0 346 -137.5t117 -397.5t-116.5 -397.5t-346.5 -137.5q-195 0 -305.5 123t-122.5 357h-121v-457h-272zM776 514q0 -215 38 -310t136 -95q100 0 139 95t39 308q0 221 -38.5 312t-139 91t-137.5 -90t-37 -311z" />
<glyph unicode="&#x44f;" horiz-adv-x="1007" d="M61 0l215 451q-199 90 -198 256q0 317 432 317h373v-1024h-273v399h-108l-164 -399h-277zM346 705q0 -94 51.5 -139.5t134.5 -45.5h78v381h-80q-184 1 -184 -196z" />
<glyph unicode="&#x450;" horiz-adv-x="970" d="M59 494q0 266 123 408t332 142q190 0 295.5 -119.5t105.5 -342.5q0 -37 -4 -69t-8 -46l-4 -14h-551q2 -1840EB93FAA66" />
<glyph unicode="&#x451;" horiz-adv-x="970" d="M59 494q0 266 123 408t332 142q190 0 295.5 -119.5t105.5 -342.5q0 -37 -4 -69t-8 -46l-4 -14h-551q2 -184 54.5 -261t168.5 -77q70 0 129.5 33.5t83.5 68.5l25 33l92 -72q-4 -8 -12 -21.5t-39 -48t-69 -61.5t-103.5 -48.5t-138.5 -21.5q-227 0 -353.5 126t-126.5 391z M158 1335q0 64 41 107q41 35 94 35t94 -35q41 -47 41 -107q0 -61 -41 -106q-39 -37 -94 -37t-94 37q-41 41 -41 106zM348 586h314v47q0 156 -33 218t-115 62q-84 0 -121 -69.5t-45 -257.5zM539 1335q0 64 41 107q39 35 94 35q53 0 94 -35q41 -47 41 -107q0 -61 -41 -106 q-39 -37 -94 -37q-57 0 -94 37q-41 41 -41 106z" />
<glyph unicode="&#x452;" horiz-adv-x="1101" d="M27 1067v119l98 20v322l272 16v-332h330v-145h-330v-289h11q8 10 24.5 26.5t82 43t144.5 26.5q160 0 245 -93t85 -273v-563q0 -225 -104.5 -352.5t-247.5 -127.5q-92 0 -174 56l43 137q41 -23 80 -23q131 0 131 310v506q0 141 -34 197.5t-114 56.5q-49 0 -92 -20.5 t-59.5 -38t-20.5 -25.5v-621h-272v1067h-98z" />
<glyph unicode="&#x453;" horiz-adv-x="794" d="M119 0v1024h616v-150h-344v-874h-272zM326 1184l143 311l221 -63l-248 -267z" />
<glyph unicode="&#x454;" horiz-adv-x="915" d="M59 514q0 240 127 386.5t344 146.5q66 0 143 -20.5t122 -41.5l43 -20l-27 -131q-145 76 -242 75q-113 0 -10026DDBAC7" />
<glyph unicode="&#x455;" horiz-adv-x="854" d="M49 131l76 107q10 -14 28.5 -35t78 -55.5t120.5 -34.5q76 0 117 38.5t41 102.5q0 57 -43 96t-104.5 65.5t-123 59.5t-104.5 97.5t-43 156.5q0 152 104.5 235t258.5 83q66 0 139.5 -17.5t114.5 -36.5l41 -18l-37 -137q-133 76 -232 75q-63 0 -98 -30.5t-35 -81.5 q0 -57 46 -98t111.5 -71t131 -65t112 -99.5t46.5 -156.5q0 -150 -99.5 -242t-285.5 -92q-119 0 -209 39t-121 78z" />
<glyph unicode="&#x456;" horiz-adv-x="518" d="M104 1335q1 68 48 115q43 41 108 41q63 0 105 -39q45 -47 45 -117q0 -72 -45 -118q-45 -39 -105 -39q-61 0 -108 41q-47 47 -48 116zM123 0v1024h272v-1024h-272z" />
<glyph unicode="&#x457;" horiz-adv-x="518" d="M-68 1335q0 64 41 107q41 35 94.5 35t94.5 -35q41 -47 41 -107q0 -61 -41 -106q-39 -37 -94.5 -37t-94.5 37q-41 41 -41 106zM123 0v1024h272v-1024h-272zM313 1335q0 64 41 107q39 35 95 35q53 0 94 -35q41 -47 41 -107q0 -61 -41 -106q-39 -37 -94 -37q-57 0 -95 37 q-41 41 -41 106z" />
<glyph unicode="&#x458;" horiz-adv-x="573" d="M-102 -473l45 123q51 -39 108 -39q66 0 95.5 73t29.5 257v1083h273v-1083q0 -248 -97.5 -362t-263.5 -114q-59 0 -106.5 15.5t-65.5 32.5zM162 1335q0 68 47 115q43 41 108 41q63 0 105 -39q45 -47 45 -117q0 -72 -45 -118q-45 -39 -105 -39q-61 0 -108 41 q-47 47 -47 116z" />
<glyph unicode="&#x459;" horiz-adv-x="1505" d="M18 -16l11 163q8 -2 24 -2q127 0 181.5 226.5t54.5 652.5h610v-352h96q453 0 453 -324q0 -178 -111.5 -263t-341.5 -85h-368v874h-185q-10 -410 -100 -653.5t-270 -243.5q-27 0 -54 7zM899 123h84q86 0 130 48t44 177q0 117 -47 160t-127 43h-84v-428z" />
<glyph unicode="&#x45a;" horiz-adv-x="1589" d="M123 0v1024h272v-428h316v428h274v-352h94q453 0 453 -324q0 -178 -111.5 -263t-341.5 -85h-368v457h-316v-457h-272zM985 123h82q86 0 130 48t44 177q0 117 -47 160t-127 43h-82v-428z" />
<glyph unicode="&#x45b;" horiz-adv-x="1097" d="M27 1067v119l98 20v322l272 16v-332h330v-145h-330v-289h11q8 10 24.5 26.5t82 43t144.5 26.5q160 0 245 -93t85 -273v-508h-272v451q0 141 -34 197.5t-116 56.5q-49 0 -91 -20.5t-60 -41.5l-19 -22v-621h-272v1067h-98z" />
<glyph unicode="&#x45c;" horiz-adv-x="1009" d="M123 0v1024h272v-428l129 68l228 360h157l-241 -383l319 -641h-309l-217 485l-66 -28v-457h-272zM449 1184l143 311l221 -63l-248 -267z" />
<glyph unicode="&#x45d;" horiz-adv-x="1130" d="M123 0v1024h272v-674l375 674h238v-1024h-273v715l-399 -715h-213zM297 1440l217 71l174 -301l-127 -34z" />
<glyph unicode="&#x45e;" horiz-adv-x="985" d="M14 1024h330l250 -729l211 729h170l-354 -1047q-96 -264 -186.5 -388t-229.5 -124q-47 0 -87 7.5t-57 15.50CE627EA6E" />
<glyph unicode="&#x45f;" horiz-adv-x="1146" d="M123 0v1024h272v-874h357v874h272v-1024h-348l-25 -303h-151l-37 303h-340z" />
<glyph unicode="&#x462;" horiz-adv-x="1265" d="M29 1034v156h262v141h284v-141h353v-156h-353v-215h107q512 0 512 -391q0 -205 -125 -316.5t-379 -111.5h-399v1034h-262zM575 133h111q119 0 167 65.5t48 221.5q0 154 -49 211t-168 57h-109v-555z" />
<glyph unicode="&#x463;" horiz-adv-x="1140" d="M20 1024h246v197l273 16v-213h276v-133h-276v-219h92q455 0 454 -324q0 -178 -111.5 -263t-342.5 -85h-365v874h-237zM539 123h82q86 0 130 48t44 177q0 117 -47 160t-127 43h-82v-428z" />
<glyph unicode="&#x490;" horiz-adv-x="860" d="M158 0v1331h491l58 205h137l16 -360h-420v-1176h-282z" />
<glyph unicode="&#x491;" horiz-adv-x="718" d="M123 0v1024h383l53 279h137l15 -429h-316v-874h-272z" />
<glyph unicode="&#x2000;" horiz-adv-x="894" />
<glyph unicode="&#x2001;" horiz-adv-x="1788" />
<glyph unicode="&#x2002;" horiz-adv-x="894" />
<glyph unicode="&#x2003;" horiz-adv-x="1788" />
<glyph unicode="&#x2004;" horiz-adv-x="596" />
<glyph unicode="&#x2005;" horiz-adv-x="447" />
<glyph unicode="&#x2006;" horiz-adv-x="298" />
<glyph unicode="&#x2007;" horiz-adv-x="298" />
<glyph unicode="&#x2008;" horiz-adv-x="223" />
<glyph unicode="&#x2009;" horiz-adv-x="357" />
<glyph unicode="&#x200a;" horiz-adv-x="99" />
<glyph unicode="&#x2010;" d="M63 487v152h558v-152h-558z" />
<glyph unicode="&#x2011;" d="M63 487v152h558v-152h-558z" />
<glyph unicode="&#x2012;" d="M63 487v152h558v-152h-558z" />
<glyph unicode="&#x2013;" horiz-adv-x="1147" d="M63 487v152h1024v-152h-1024z" />
<glyph unicode="&#x2014;" horiz-adv-x="2171" d="M63 487v152h2048v-152h-2048z" />
<glyph unicode="&#x202f;" horiz-adv-x="357" />
<glyph unicode="&#x205f;" horiz-adv-x="447" />
<glyph unicode="&#x25fc;" horiz-adv-x="1024" d="M0 0v1024h1024v-1024h-1024z" />
</font>
</defs>
</svg>
